<mxfile host="app.diagrams.net" modified="2024-04-02T05:32:40.518Z" agent="Mozilla/5.0 (Windows NT 10.0; Win64; x64) AppleWebKit/537.36 (KHTML, like Gecko) Chrome/123.0.0.0 Safari/537.36" etag="IMAl0EtDGdtkYfSYgae1" version="24.1.0" type="github">
  <diagram name="Page-1" id="YtbSWpO0L87CD961AXiI">
    <mxGraphModel dx="1687" dy="1005" grid="1" gridSize="10" guides="1" tooltips="1" connect="1" arrows="1" fold="1" page="1" pageScale="1" pageWidth="850" pageHeight="1100" math="0" shadow="0">
      <root>
        <mxCell id="0" />
        <mxCell id="1" parent="0" />
        <mxCell id="PWkDMcdENuoziB6zupQ7-1" value="" style="swimlane;html=1;childLayout=stackLayout;resizeParent=1;resizeParentMax=0;horizontal=0;startSize=20;horizontalStack=0;whiteSpace=wrap;" vertex="1" parent="1">
          <mxGeometry x="40" y="40" width="2660" height="1650" as="geometry" />
        </mxCell>
        <mxCell id="PWkDMcdENuoziB6zupQ7-2" value="&lt;font style=&quot;font-size: 14px;&quot;&gt;Cabinet Secretary&lt;/font&gt;" style="swimlane;html=1;startSize=20;horizontal=0;" vertex="1" parent="PWkDMcdENuoziB6zupQ7-1">
          <mxGeometry x="20" width="2640" height="200" as="geometry" />
        </mxCell>
        <mxCell id="PWkDMcdENuoziB6zupQ7-3" value="" style="edgeStyle=orthogonalEdgeStyle;rounded=0;orthogonalLoop=1;jettySize=auto;html=1;entryX=0;entryY=0.5;entryDx=0;entryDy=0;entryPerimeter=0;" edge="1" parent="PWkDMcdENuoziB6zupQ7-2" source="PWkDMcdENuoziB6zupQ7-4" target="PWkDMcdENuoziB6zupQ7-6">
          <mxGeometry relative="1" as="geometry">
            <mxPoint x="160" y="55" as="targetPoint" />
          </mxGeometry>
        </mxCell>
        <mxCell id="PWkDMcdENuoziB6zupQ7-4" value="" style="points=[[0.145,0.145,0],[0.5,0,0],[0.855,0.145,0],[1,0.5,0],[0.855,0.855,0],[0.5,1,0],[0.145,0.855,0],[0,0.5,0]];shape=mxgraph.bpmn.event;html=1;verticalLabelPosition=bottom;labelBackgroundColor=#ffffff;verticalAlign=top;align=center;perimeter=ellipsePerimeter;outlineConnect=0;aspect=fixed;outline=standard;symbol=general;" vertex="1" parent="PWkDMcdENuoziB6zupQ7-2">
          <mxGeometry x="50" y="54" width="50" height="50" as="geometry" />
        </mxCell>
        <mxCell id="PWkDMcdENuoziB6zupQ7-5" value="" style="edgeStyle=orthogonalEdgeStyle;rounded=0;orthogonalLoop=1;jettySize=auto;html=1;" edge="1" parent="PWkDMcdENuoziB6zupQ7-2" source="PWkDMcdENuoziB6zupQ7-6" target="PWkDMcdENuoziB6zupQ7-8">
          <mxGeometry relative="1" as="geometry" />
        </mxCell>
        <mxCell id="PWkDMcdENuoziB6zupQ7-6" value="Gazette Notice by the cabinet Secretary&amp;nbsp;&lt;span style=&quot;background-color: initial;&quot;&gt;in&lt;/span&gt;&lt;div&gt;&lt;span style=&quot;background-color: initial;&quot;&gt;charge of Land matters declaring an Adjudication Area&lt;/span&gt;&lt;/div&gt;" style="shape=mxgraph.bpmn.data;labelPosition=center;verticalLabelPosition=bottom;align=center;verticalAlign=top;size=15;html=1;bpmnTransferType=input;" vertex="1" parent="PWkDMcdENuoziB6zupQ7-2">
          <mxGeometry x="157" y="45" width="130" height="69" as="geometry" />
        </mxCell>
        <mxCell id="PWkDMcdENuoziB6zupQ7-8" value="&lt;div style=&quot;&quot;&gt;&lt;span style=&quot;background-color: initial;&quot;&gt;Appointment of Land Adjudication Officers by Cabinet Secretary&lt;/span&gt;&lt;/div&gt;" style="whiteSpace=wrap;html=1;verticalAlign=top;align=center;" vertex="1" parent="PWkDMcdENuoziB6zupQ7-2">
          <mxGeometry x="409" y="54" width="198" height="50" as="geometry" />
        </mxCell>
        <mxCell id="PWkDMcdENuoziB6zupQ7-18" value="Director of Survey" style="swimlane;html=1;startSize=20;horizontal=0;" vertex="1" parent="PWkDMcdENuoziB6zupQ7-1">
          <mxGeometry x="20" y="200" width="2640" height="200" as="geometry" />
        </mxCell>
        <mxCell id="PWkDMcdENuoziB6zupQ7-28" value="Director of survey is incharge of providing area/base maps on the allocated land and satellite imageries" style="whiteSpace=wrap;html=1;" vertex="1" parent="PWkDMcdENuoziB6zupQ7-18">
          <mxGeometry x="408" y="59" width="200" height="83" as="geometry" />
        </mxCell>
        <mxCell id="PWkDMcdENuoziB6zupQ7-33" value="Land Adjudication Officer" style="swimlane;html=1;startSize=20;horizontal=0;" vertex="1" parent="PWkDMcdENuoziB6zupQ7-1">
          <mxGeometry x="20" y="400" width="2640" height="200" as="geometry" />
        </mxCell>
        <mxCell id="PWkDMcdENuoziB6zupQ7-92" value="" style="edgeStyle=orthogonalEdgeStyle;rounded=0;orthogonalLoop=1;jettySize=auto;html=1;" edge="1" parent="PWkDMcdENuoziB6zupQ7-33" source="PWkDMcdENuoziB6zupQ7-38" target="PWkDMcdENuoziB6zupQ7-78">
          <mxGeometry relative="1" as="geometry" />
        </mxCell>
        <mxCell id="PWkDMcdENuoziB6zupQ7-93" value="False" style="edgeLabel;html=1;align=center;verticalAlign=middle;resizable=0;points=[];" vertex="1" connectable="0" parent="PWkDMcdENuoziB6zupQ7-92">
          <mxGeometry x="-0.271" y="-1" relative="1" as="geometry">
            <mxPoint x="7" as="offset" />
          </mxGeometry>
        </mxCell>
        <mxCell id="PWkDMcdENuoziB6zupQ7-38" value="Objection" style="rhombus;whiteSpace=wrap;html=1;" vertex="1" parent="PWkDMcdENuoziB6zupQ7-33">
          <mxGeometry x="1348" y="56" width="80" height="80" as="geometry" />
        </mxCell>
        <mxCell id="PWkDMcdENuoziB6zupQ7-40" value="Declaration of Adjudication Section, Election of Committee Members and appointment of Arbitration Board members by Land Adjudication Ofﬁcer" style="whiteSpace=wrap;html=1;" vertex="1" parent="PWkDMcdENuoziB6zupQ7-33">
          <mxGeometry x="408" y="52" width="200" height="90" as="geometry" />
        </mxCell>
        <mxCell id="PWkDMcdENuoziB6zupQ7-91" value="" style="edgeStyle=orthogonalEdgeStyle;rounded=0;orthogonalLoop=1;jettySize=auto;html=1;" edge="1" parent="PWkDMcdENuoziB6zupQ7-33" source="PWkDMcdENuoziB6zupQ7-52" target="PWkDMcdENuoziB6zupQ7-38">
          <mxGeometry relative="1" as="geometry" />
        </mxCell>
        <mxCell id="PWkDMcdENuoziB6zupQ7-52" value="Publication of Adjudication Register by the Land Adjudication Ofﬁcer providing for 60 Days period for ﬁling of Objections cases" style="whiteSpace=wrap;html=1;" vertex="1" parent="PWkDMcdENuoziB6zupQ7-33">
          <mxGeometry x="1040" y="52" width="222" height="87.5" as="geometry" />
        </mxCell>
        <mxCell id="PWkDMcdENuoziB6zupQ7-78" value="Checking of Records, Forwarding maps to Director of Surveys and Records to DLAS" style="rounded=0;whiteSpace=wrap;html=1;" vertex="1" parent="PWkDMcdENuoziB6zupQ7-33">
          <mxGeometry x="1560" y="57" width="160" height="78" as="geometry" />
        </mxCell>
        <mxCell id="PWkDMcdENuoziB6zupQ7-43" value="Demacation Officer/ Surveyor" style="swimlane;html=1;startSize=20;horizontal=0;" vertex="1" parent="PWkDMcdENuoziB6zupQ7-1">
          <mxGeometry x="20" y="600" width="2640" height="190" as="geometry" />
        </mxCell>
        <mxCell id="PWkDMcdENuoziB6zupQ7-44" value="" style="edgeStyle=orthogonalEdgeStyle;rounded=0;orthogonalLoop=1;jettySize=auto;html=1;exitX=0.5;exitY=1;exitDx=0;exitDy=0;" edge="1" parent="PWkDMcdENuoziB6zupQ7-43">
          <mxGeometry relative="1" as="geometry">
            <mxPoint x="1880" y="166" as="targetPoint" />
          </mxGeometry>
        </mxCell>
        <mxCell id="PWkDMcdENuoziB6zupQ7-45" value="Rejects" style="edgeLabel;html=1;align=center;verticalAlign=middle;resizable=0;points=[];" vertex="1" connectable="0" parent="PWkDMcdENuoziB6zupQ7-44">
          <mxGeometry x="-0.2857" y="-3" relative="1" as="geometry">
            <mxPoint as="offset" />
          </mxGeometry>
        </mxCell>
        <mxCell id="PWkDMcdENuoziB6zupQ7-47" value="&lt;div&gt;Demarcation and Surveying by Demarcation Ofﬁcer of individual interests&lt;/div&gt;&lt;div&gt;Group interests advised to apply for registration under CLA, 2016&lt;/div&gt;&lt;div&gt;&lt;br&gt;&lt;/div&gt;" style="whiteSpace=wrap;html=1;" vertex="1" parent="PWkDMcdENuoziB6zupQ7-43">
          <mxGeometry x="378" y="40" width="260" height="92" as="geometry" />
        </mxCell>
        <mxCell id="PWkDMcdENuoziB6zupQ7-58" value="Compilation of Adjudication Register by the Demarcation Ofﬁcer" style="whiteSpace=wrap;html=1;" vertex="1" parent="PWkDMcdENuoziB6zupQ7-43">
          <mxGeometry x="730" y="40" width="231" height="73" as="geometry" />
        </mxCell>
        <mxCell id="PWkDMcdENuoziB6zupQ7-51" value="Arbitration Board/ Committee Members" style="swimlane;html=1;startSize=20;horizontal=0;" vertex="1" parent="PWkDMcdENuoziB6zupQ7-1">
          <mxGeometry x="20" y="790" width="2640" height="240" as="geometry" />
        </mxCell>
        <mxCell id="PWkDMcdENuoziB6zupQ7-48" value="Filing and hearing of committee and Arbitration Board Cases" style="whiteSpace=wrap;html=1;" vertex="1" parent="PWkDMcdENuoziB6zupQ7-51">
          <mxGeometry x="407" y="71" width="201" height="90" as="geometry" />
        </mxCell>
        <mxCell id="PWkDMcdENuoziB6zupQ7-39" value="&lt;div&gt;&lt;span style=&quot;background-color: initial;&quot;&gt;&lt;br&gt;&lt;/span&gt;&lt;/div&gt;&lt;div&gt;&lt;span style=&quot;background-color: initial;&quot;&gt;Hearing objection cases and implementation of Objection decisions and ﬁling of Appeals to the Minister cases&lt;/span&gt;&lt;br&gt;&lt;/div&gt;&lt;div&gt;&lt;br&gt;&lt;/div&gt;" style="whiteSpace=wrap;html=1;" vertex="1" parent="PWkDMcdENuoziB6zupQ7-51">
          <mxGeometry x="1300" y="79" width="176" height="82" as="geometry" />
        </mxCell>
        <mxCell id="PWkDMcdENuoziB6zupQ7-53" value="Land Owners" style="swimlane;html=1;startSize=20;horizontal=0;" vertex="1" parent="PWkDMcdENuoziB6zupQ7-1">
          <mxGeometry x="20" y="1030" width="2640" height="190" as="geometry" />
        </mxCell>
        <mxCell id="PWkDMcdENuoziB6zupQ7-77" value="Verification and Signing of Adjudication Register by Land owners" style="whiteSpace=wrap;html=1;" vertex="1" parent="PWkDMcdENuoziB6zupQ7-53">
          <mxGeometry x="408" y="73" width="200" height="82" as="geometry" />
        </mxCell>
        <mxCell id="PWkDMcdENuoziB6zupQ7-98" value="" style="triangle;whiteSpace=wrap;html=1;rotation=0;" vertex="1" parent="PWkDMcdENuoziB6zupQ7-53">
          <mxGeometry x="1710" y="533.5" width="10" height="15" as="geometry" />
        </mxCell>
        <mxCell id="PWkDMcdENuoziB6zupQ7-63" value="Director Land Adjudication &amp;amp; Settlement" style="swimlane;html=1;startSize=20;horizontal=0;" vertex="1" parent="PWkDMcdENuoziB6zupQ7-1">
          <mxGeometry x="20" y="1220" width="2640" height="260" as="geometry" />
        </mxCell>
        <mxCell id="PWkDMcdENuoziB6zupQ7-64" value="" style="edgeStyle=orthogonalEdgeStyle;rounded=0;orthogonalLoop=1;jettySize=auto;html=1;exitX=0.5;exitY=1;exitDx=0;exitDy=0;" edge="1" parent="PWkDMcdENuoziB6zupQ7-63">
          <mxGeometry relative="1" as="geometry">
            <mxPoint x="1880" y="166" as="targetPoint" />
          </mxGeometry>
        </mxCell>
        <mxCell id="PWkDMcdENuoziB6zupQ7-65" value="Rejects" style="edgeLabel;html=1;align=center;verticalAlign=middle;resizable=0;points=[];" vertex="1" connectable="0" parent="PWkDMcdENuoziB6zupQ7-64">
          <mxGeometry x="-0.2857" y="-3" relative="1" as="geometry">
            <mxPoint as="offset" />
          </mxGeometry>
        </mxCell>
        <mxCell id="PWkDMcdENuoziB6zupQ7-99" value="&lt;div&gt;&lt;div&gt;&lt;span style=&quot;background-color: initial;&quot;&gt;&lt;br&gt;&lt;/span&gt;&lt;/div&gt;&lt;div&gt;&lt;span style=&quot;background-color: initial;&quot;&gt;Issuance of Certiﬁcate of Finality by Director of Land Adjudication and Settlement&amp;nbsp;&lt;/span&gt;&lt;span style=&quot;background-color: initial;&quot;&gt;Publication of Maps and Generation of Area list&lt;/span&gt;&lt;/div&gt;&lt;/div&gt;&lt;div&gt;&lt;br&gt;&lt;/div&gt;" style="whiteSpace=wrap;html=1;" vertex="1" parent="PWkDMcdENuoziB6zupQ7-63">
          <mxGeometry x="1720" y="60" width="210" height="82" as="geometry" />
        </mxCell>
        <mxCell id="PWkDMcdENuoziB6zupQ7-107" value="" style="endArrow=none;dashed=1;html=1;rounded=0;exitX=0;exitY=0.5;exitDx=0;exitDy=0;" edge="1" parent="PWkDMcdENuoziB6zupQ7-63" source="PWkDMcdENuoziB6zupQ7-102">
          <mxGeometry width="50" height="50" relative="1" as="geometry">
            <mxPoint x="1720" y="275" as="sourcePoint" />
            <mxPoint x="1640" y="350" as="targetPoint" />
          </mxGeometry>
        </mxCell>
        <mxCell id="PWkDMcdENuoziB6zupQ7-66" value="Chief Land Registrar" style="swimlane;html=1;startSize=20;horizontal=0;" vertex="1" parent="PWkDMcdENuoziB6zupQ7-1">
          <mxGeometry x="20" y="1480" width="2640" height="170" as="geometry" />
        </mxCell>
        <mxCell id="PWkDMcdENuoziB6zupQ7-67" value="" style="edgeStyle=orthogonalEdgeStyle;rounded=0;orthogonalLoop=1;jettySize=auto;html=1;exitX=0.5;exitY=1;exitDx=0;exitDy=0;" edge="1" parent="PWkDMcdENuoziB6zupQ7-66">
          <mxGeometry relative="1" as="geometry">
            <mxPoint x="1880" y="166" as="targetPoint" />
          </mxGeometry>
        </mxCell>
        <mxCell id="PWkDMcdENuoziB6zupQ7-68" value="Rejects" style="edgeLabel;html=1;align=center;verticalAlign=middle;resizable=0;points=[];" vertex="1" connectable="0" parent="PWkDMcdENuoziB6zupQ7-67">
          <mxGeometry x="-0.2857" y="-3" relative="1" as="geometry">
            <mxPoint as="offset" />
          </mxGeometry>
        </mxCell>
        <mxCell id="PWkDMcdENuoziB6zupQ7-109" value="" style="edgeStyle=orthogonalEdgeStyle;rounded=0;orthogonalLoop=1;jettySize=auto;html=1;" edge="1" parent="PWkDMcdENuoziB6zupQ7-66" source="PWkDMcdENuoziB6zupQ7-102" target="PWkDMcdENuoziB6zupQ7-108">
          <mxGeometry relative="1" as="geometry" />
        </mxCell>
        <mxCell id="PWkDMcdENuoziB6zupQ7-102" value="Forwarding of Adjudication Register to Chief Land Registrar.&lt;div&gt;&lt;br&gt;List of Parcels Restricted /Court&lt;span style=&quot;background-color: initial;&quot;&gt;&amp;nbsp;&lt;/span&gt;&lt;span style=&quot;background-color: initial;&quot;&gt;Cases&lt;/span&gt;&lt;span style=&quot;background-color: initial;&quot;&gt;&amp;nbsp;and Appeals to CS&lt;/span&gt;&lt;/div&gt;" style="whiteSpace=wrap;html=1;rounded=0;" vertex="1" parent="PWkDMcdENuoziB6zupQ7-66">
          <mxGeometry x="1720" y="51" width="210" height="80" as="geometry" />
        </mxCell>
        <mxCell id="PWkDMcdENuoziB6zupQ7-108" value="Hearing and determination of appeal cases" style="whiteSpace=wrap;html=1;rounded=0;" vertex="1" parent="PWkDMcdENuoziB6zupQ7-66">
          <mxGeometry x="2071" y="61" width="120" height="60" as="geometry" />
        </mxCell>
        <mxCell id="PWkDMcdENuoziB6zupQ7-112" value="Amendment of Adjudication Register by DLAS" style="whiteSpace=wrap;html=1;rounded=0;" vertex="1" parent="PWkDMcdENuoziB6zupQ7-66">
          <mxGeometry x="2230" y="-199" width="120" height="60" as="geometry" />
        </mxCell>
        <mxCell id="PWkDMcdENuoziB6zupQ7-114" value="Issuance of Title Deed by Chief Land Registrar" style="whiteSpace=wrap;html=1;rounded=0;" vertex="1" parent="PWkDMcdENuoziB6zupQ7-66">
          <mxGeometry x="2430" y="60" width="120" height="60" as="geometry" />
        </mxCell>
        <mxCell id="PWkDMcdENuoziB6zupQ7-115" value="" style="edgeStyle=orthogonalEdgeStyle;rounded=0;orthogonalLoop=1;jettySize=auto;html=1;" edge="1" parent="PWkDMcdENuoziB6zupQ7-66" source="PWkDMcdENuoziB6zupQ7-112" target="PWkDMcdENuoziB6zupQ7-114">
          <mxGeometry relative="1" as="geometry" />
        </mxCell>
        <mxCell id="PWkDMcdENuoziB6zupQ7-82" value="" style="edgeStyle=orthogonalEdgeStyle;rounded=0;orthogonalLoop=1;jettySize=auto;html=1;entryX=0.5;entryY=0;entryDx=0;entryDy=0;" edge="1" parent="PWkDMcdENuoziB6zupQ7-1" source="PWkDMcdENuoziB6zupQ7-8" target="PWkDMcdENuoziB6zupQ7-28">
          <mxGeometry relative="1" as="geometry">
            <mxPoint x="528" y="179" as="targetPoint" />
          </mxGeometry>
        </mxCell>
        <mxCell id="PWkDMcdENuoziB6zupQ7-84" value="" style="edgeStyle=orthogonalEdgeStyle;rounded=0;orthogonalLoop=1;jettySize=auto;html=1;entryX=0.5;entryY=0;entryDx=0;entryDy=0;" edge="1" parent="PWkDMcdENuoziB6zupQ7-1" source="PWkDMcdENuoziB6zupQ7-28" target="PWkDMcdENuoziB6zupQ7-40">
          <mxGeometry relative="1" as="geometry">
            <mxPoint x="528" y="433.5" as="targetPoint" />
          </mxGeometry>
        </mxCell>
        <mxCell id="PWkDMcdENuoziB6zupQ7-85" value="" style="edgeStyle=orthogonalEdgeStyle;rounded=0;orthogonalLoop=1;jettySize=auto;html=1;" edge="1" parent="PWkDMcdENuoziB6zupQ7-1" source="PWkDMcdENuoziB6zupQ7-40" target="PWkDMcdENuoziB6zupQ7-47">
          <mxGeometry relative="1" as="geometry" />
        </mxCell>
        <mxCell id="PWkDMcdENuoziB6zupQ7-86" value="" style="edgeStyle=orthogonalEdgeStyle;rounded=0;orthogonalLoop=1;jettySize=auto;html=1;" edge="1" parent="PWkDMcdENuoziB6zupQ7-1" source="PWkDMcdENuoziB6zupQ7-47" target="PWkDMcdENuoziB6zupQ7-48">
          <mxGeometry relative="1" as="geometry" />
        </mxCell>
        <mxCell id="PWkDMcdENuoziB6zupQ7-87" value="" style="edgeStyle=orthogonalEdgeStyle;rounded=0;orthogonalLoop=1;jettySize=auto;html=1;" edge="1" parent="PWkDMcdENuoziB6zupQ7-1" source="PWkDMcdENuoziB6zupQ7-48" target="PWkDMcdENuoziB6zupQ7-58">
          <mxGeometry relative="1" as="geometry" />
        </mxCell>
        <mxCell id="PWkDMcdENuoziB6zupQ7-88" value="" style="edgeStyle=orthogonalEdgeStyle;rounded=0;orthogonalLoop=1;jettySize=auto;html=1;" edge="1" parent="PWkDMcdENuoziB6zupQ7-1" source="PWkDMcdENuoziB6zupQ7-77" target="PWkDMcdENuoziB6zupQ7-52">
          <mxGeometry relative="1" as="geometry" />
        </mxCell>
        <mxCell id="PWkDMcdENuoziB6zupQ7-90" value="" style="edgeStyle=orthogonalEdgeStyle;rounded=0;orthogonalLoop=1;jettySize=auto;html=1;exitX=1;exitY=0.5;exitDx=0;exitDy=0;entryX=0.5;entryY=0;entryDx=0;entryDy=0;" edge="1" parent="PWkDMcdENuoziB6zupQ7-1" source="PWkDMcdENuoziB6zupQ7-58" target="PWkDMcdENuoziB6zupQ7-77">
          <mxGeometry relative="1" as="geometry">
            <mxPoint x="949" y="951" as="sourcePoint" />
            <mxPoint x="949" y="1044" as="targetPoint" />
            <Array as="points">
              <mxPoint x="1040" y="677" />
              <mxPoint x="1040" y="1070" />
              <mxPoint x="528" y="1070" />
            </Array>
          </mxGeometry>
        </mxCell>
        <mxCell id="PWkDMcdENuoziB6zupQ7-34" value="" style="edgeStyle=orthogonalEdgeStyle;rounded=0;orthogonalLoop=1;jettySize=auto;html=1;" edge="1" parent="PWkDMcdENuoziB6zupQ7-1" source="PWkDMcdENuoziB6zupQ7-38" target="PWkDMcdENuoziB6zupQ7-39">
          <mxGeometry relative="1" as="geometry" />
        </mxCell>
        <mxCell id="PWkDMcdENuoziB6zupQ7-35" value="True" style="edgeLabel;html=1;align=center;verticalAlign=middle;resizable=0;points=[];" vertex="1" connectable="0" parent="PWkDMcdENuoziB6zupQ7-34">
          <mxGeometry x="-0.3667" y="1" relative="1" as="geometry">
            <mxPoint as="offset" />
          </mxGeometry>
        </mxCell>
        <mxCell id="PWkDMcdENuoziB6zupQ7-101" value="" style="edgeStyle=orthogonalEdgeStyle;rounded=0;orthogonalLoop=1;jettySize=auto;html=1;entryX=0.5;entryY=0;entryDx=0;entryDy=0;" edge="1" parent="PWkDMcdENuoziB6zupQ7-1" source="PWkDMcdENuoziB6zupQ7-78" target="PWkDMcdENuoziB6zupQ7-99">
          <mxGeometry relative="1" as="geometry">
            <mxPoint x="1845" y="1240" as="targetPoint" />
            <Array as="points">
              <mxPoint x="1845" y="496" />
            </Array>
          </mxGeometry>
        </mxCell>
        <mxCell id="PWkDMcdENuoziB6zupQ7-106" value="" style="edgeStyle=orthogonalEdgeStyle;rounded=0;orthogonalLoop=1;jettySize=auto;html=1;" edge="1" parent="PWkDMcdENuoziB6zupQ7-1" source="PWkDMcdENuoziB6zupQ7-99" target="PWkDMcdENuoziB6zupQ7-102">
          <mxGeometry relative="1" as="geometry" />
        </mxCell>
        <mxCell id="PWkDMcdENuoziB6zupQ7-94" value="" style="endArrow=none;dashed=1;html=1;rounded=0;exitX=1;exitY=0.5;exitDx=0;exitDy=0;" edge="1" parent="1" source="PWkDMcdENuoziB6zupQ7-39">
          <mxGeometry width="50" height="50" relative="1" as="geometry">
            <mxPoint x="1564" y="940" as="sourcePoint" />
            <mxPoint x="1700" y="950" as="targetPoint" />
          </mxGeometry>
        </mxCell>
        <mxCell id="PWkDMcdENuoziB6zupQ7-95" value="" style="endArrow=none;dashed=1;html=1;rounded=0;" edge="1" parent="1">
          <mxGeometry width="50" height="50" relative="1" as="geometry">
            <mxPoint x="1699" y="950" as="sourcePoint" />
            <mxPoint x="1700" y="1610" as="targetPoint" />
          </mxGeometry>
        </mxCell>
        <mxCell id="PWkDMcdENuoziB6zupQ7-116" value="&lt;div&gt;&lt;br&gt;&lt;/div&gt;&lt;div&gt;Implementation of Appeal to the Cabinet Secretary case decisions&lt;/div&gt;&lt;div&gt;&lt;br&gt;&lt;/div&gt;" style="whiteSpace=wrap;html=1;rounded=0;" vertex="1" parent="1">
          <mxGeometry x="2290" y="140" width="120" height="60" as="geometry" />
        </mxCell>
        <mxCell id="PWkDMcdENuoziB6zupQ7-111" value="" style="edgeStyle=orthogonalEdgeStyle;rounded=0;orthogonalLoop=1;jettySize=auto;html=1;entryX=0;entryY=0.5;entryDx=0;entryDy=0;" edge="1" parent="1" source="PWkDMcdENuoziB6zupQ7-108" target="PWkDMcdENuoziB6zupQ7-116">
          <mxGeometry relative="1" as="geometry">
            <mxPoint x="2290" y="1611" as="targetPoint" />
            <Array as="points">
              <mxPoint x="2190" y="170" />
            </Array>
          </mxGeometry>
        </mxCell>
        <mxCell id="PWkDMcdENuoziB6zupQ7-117" value="" style="edgeStyle=orthogonalEdgeStyle;rounded=0;orthogonalLoop=1;jettySize=auto;html=1;exitX=0.5;exitY=1;exitDx=0;exitDy=0;entryX=0.5;entryY=0;entryDx=0;entryDy=0;" edge="1" parent="1" source="PWkDMcdENuoziB6zupQ7-116" target="PWkDMcdENuoziB6zupQ7-112">
          <mxGeometry relative="1" as="geometry">
            <mxPoint x="2340" y="220" as="sourcePoint" />
            <mxPoint x="2340" y="960" as="targetPoint" />
          </mxGeometry>
        </mxCell>
      </root>
    </mxGraphModel>
  </diagram>
</mxfile>
